# xmcd
#
# Track frame offsets:
#        150
#        12586
#        27802
#        39510
#        52599
#        63842
#        78561
#        90125
#        102058
#        115453
#        128989
#        143748
#        158060
#        170865
#
# Disc length: 2439 seconds
#
# Revision: 0
# Processed by: cddbd v1.5PL3 Copyright (c) Steve Scherf et al.
# Submitted via: ExactAudioCopy v0.95a4
#
DISCID=a909850e
DTITLE=Various Artist - The Complete Collection GOSPEL
DYEAR=1900
DGENRE=
TTITLE0=MOVE ON UP A LITTLE HIGHER-Part 1/Mahalia Jackson
TTITLE1=MOVE ON UP A LITTLE HIGHER-Part 2/Mahalia Jackson
TTITLE2=JUST A CLOSER WALK WITH THEE/Sallie Martin Singers
TTITLE3=OUR FATHER/Original Five Blind Boys(Jackson Harmoneers)
TTITLE4=THE LAST MILE OF THE WAY/Mahalia Jackson
TTITLE5=I CAN PUT MY TRUST IN JESUS/Mahalia Jackson
TTITLE6=MILKY WHITE WAY/The Trumpeteers
TTITLE7=DON'T LET NOBODY TURN YOU AROUND/The Fairfield Four
TTITLE8=EVEN ME/Mahalia Jackson
TTITLE9=I'M GETTING NEARER TO MY HOME/Mahalia Jackson
TTITLE10=PRAISE THE LOAD AND PASS THE AMMUNITION/The Southern Sons Qua
TTITLE10=rtette
TTITLE11=STALIN WASN'T STALLIN'/The Golden Gate Jubilee Quartet
TTITLE12=I'M GLAD SLAVATION IS FREE/Mahalia Jackson
TTITLE13=WALK WITH ME/Mahalia Jackson
EXTD=
EXTT0=
EXTT1=
EXTT2=
EXTT3=
EXTT4=
EXTT5=
EXTT6=
EXTT7=
EXTT8=
EXTT9=
EXTT10=
EXTT11=
EXTT12=
EXTT13=
PLAYORDER=
